<?xml version="1.0" encoding="UTF-8"?>
<!DOCTYPE svg PUBLIC "-//W3C//DTD SVG 1.1//EN" "http://www.w3.org/Graphics/SVG/1.1/DTD/svg11.dtd">
<!-- Creator: CorelDRAW -->
<svg xmlns="http://www.w3.org/2000/svg" xml:space="preserve" width="5.11262in" height="5.1181in" version="1.1" style="shape-rendering:geometricPrecision; text-rendering:geometricPrecision; image-rendering:optimizeQuality; fill-rule:evenodd; clip-rule:evenodd"
viewBox="0 0 5113 5118"
 xmlns:xlink="http://www.w3.org/1999/xlink"
 xmlns:svg="http://www.w3.org/2000/svg">
 <defs>
  <style type="text/css">
   <![CDATA[
    .fil6 {fill:none}
    .fil4 {fill:#FEFEFE}
    .fil9 {fill:#373435}
    .fil1 {fill:#FFF212}
    .fil8 {fill:black}
    .fil0 {fill:#000094}
    .fil3 {fill:#008131}
    .fil7 {fill:#EA3313}
    .fil2 {fill:#FFF100}
    .fil5 {fill:white}
   ]]>
  </style>
 </defs>
 <g id="Layer_x0020_1">
  <metadata id="CorelCorpID_0Corel-Layer"/>
 </g>
 <g id="svg2">
  <metadata id="CorelCorpID_1Corel-Layer"/>
  <path class="fil0" d="M3980 667c206,-14 456,131 633,500 155,321 262,550 445,638 6,-2 7,2 1,4 -93,179 -42,427 28,777 80,404 -35,671 -209,781l0 1c72,192 6,472 -295,749 -263,241 -451,410 -482,610 4,5 0,8 -3,3 -199,-37 -421,84 -736,251 -362,194 -650,162 -807,29 -156,133 -444,165 -807,-29 -314,-167 -536,-288 -735,-251 -4,5 -7,2 -3,-3 -31,-200 -219,-369 -482,-610 -301,-277 -368,-558 -294,-751 -174,-111 -288,-377 -208,-780 69,-350 121,-598 28,-777 -6,-2 -5,-6 1,-4 182,-88 290,-317 444,-638 179,-371 431,-516 637,-499l0 0c50,-200 267,-392 674,-444 354,-45 605,-74 746,-219 0,-7 4,-7 4,0 141,145 392,174 746,219 407,52 624,244 674,443zm-41 56c199,-14 441,127 614,485 150,312 255,534 431,619 6,-2 7,2 2,4 -91,174 -41,414 26,754 78,392 -33,651 -202,758l0 1c70,186 5,459 -287,727 -255,234 -437,399 -467,593 3,5 0,7 -3,2 -193,-36 -409,82 -714,244 -352,188 -631,158 -784,28 -152,130 -431,160 -783,-28 -305,-162 -521,-280 -714,-244 -3,5 -7,3 -3,-2 -30,-194 -213,-359 -467,-593 -293,-269 -358,-542 -286,-728 -169,-108 -279,-367 -202,-758 67,-340 117,-580 27,-754 -6,-2 -5,-6 1,-4 177,-85 281,-307 432,-619 173,-360 417,-501 617,-485l0 0c50,-194 260,-380 655,-430 343,-44 587,-73 724,-213 0,-7 4,-7 4,0 137,140 381,169 724,213 395,50 605,236 655,430z"/>
  <path class="fil1" d="M3939 723c199,-14 441,127 614,485 150,312 255,534 431,619 6,-2 7,2 2,4 -91,174 -41,414 26,754 78,392 -33,651 -202,758l0 1c70,186 5,459 -287,727 -255,234 -437,399 -467,593 3,5 0,7 -3,2 -193,-36 -409,82 -714,244 -352,188 -631,158 -784,28 -152,130 -431,160 -783,-28 -305,-162 -521,-280 -714,-244 -3,5 -7,3 -3,-2 -30,-194 -213,-359 -467,-593 -293,-269 -358,-542 -286,-728 -169,-108 -279,-367 -202,-758 67,-340 117,-580 27,-754 -6,-2 -5,-6 1,-4 177,-85 281,-307 432,-619 173,-360 417,-501 617,-485l0 0c50,-194 260,-380 655,-430 343,-44 587,-73 724,-213 0,-7 4,-7 4,0 137,140 381,169 724,213 395,50 605,236 655,430zm-61 81c190,-14 422,121 587,463 144,298 244,511 413,592 5,-2 6,2 1,4 -86,166 -39,396 26,721 74,375 -32,622 -194,725l0 0c67,179 5,439 -274,696 -244,224 -418,381 -447,566 3,5 0,7 -3,3 -185,-35 -391,78 -683,233 -336,179 -603,150 -749,26 -145,124 -412,153 -749,-26 -291,-155 -498,-268 -682,-233 -3,4 -6,2 -3,-3 -29,-185 -203,-342 -447,-566 -280,-257 -341,-518 -273,-697 -162,-103 -267,-350 -193,-724 64,-325 112,-555 26,-721 -6,-2 -5,-6 1,-4 169,-81 269,-294 412,-592 166,-344 400,-478 591,-463l0 0c47,-186 248,-364 626,-412 328,-42 561,-69 692,-204 0,-5 4,-5 4,0 131,135 364,162 692,204 378,48 579,226 626,412z"/>
  <path class="fil0" d="M3878 804c190,-14 422,121 587,463 144,298 244,511 413,592 5,-2 6,2 1,4 -86,166 -39,396 26,721 74,375 -32,622 -194,725l0 0c67,179 5,439 -274,696 -244,224 -418,381 -447,566 3,5 0,7 -3,3 -185,-35 -391,78 -683,233 -336,179 -603,150 -749,26 -145,124 -412,153 -749,-26 -291,-155 -498,-268 -682,-233 -3,4 -6,2 -3,-3 -29,-185 -203,-342 -447,-566 -280,-257 -341,-518 -273,-697 -162,-103 -267,-350 -193,-724 64,-325 112,-555 26,-721 -6,-2 -5,-6 1,-4 169,-81 269,-294 412,-592 166,-344 400,-478 591,-463l0 0c47,-186 248,-364 626,-412 328,-42 561,-69 692,-204 0,-5 4,-5 4,0 131,135 364,162 692,204 378,48 579,226 626,412z"/>
  <path class="fil2" d="M2556 3857l-4 0c-303,-16 -629,-28 -894,-194 -260,-195 -382,-293 -511,-603 125,75 189,100 334,114l-8 -22c-174,-173 -362,-51 -362,-458l0 -57 14 26 8 27 14 26c67,113 239,123 352,211l0 -13 0 -13 0 -9 -4 -13 -9 -18 -13 -17 -9 -9c-236,-157 -403,-190 -313,-582l18 -57 17 66 13 27c52,153 265,263 401,334l-4 -22 -9 -17c-46,-139 -680,-378 -158,-842 -127,420 129,448 365,732 66,-197 -432,-235 -291,-732 121,-280 323,-373 604,-453l97 -27 -66 31 -62 31c-153,102 -273,301 -273,489l0 22 4 48 0 27c50,247 228,269 326,515l5 49 0 26c-16,81 -65,115 -150,141 -144,43 7,170 22,216l4 13 0 18 -4 17 -9 22c-58,118 -269,307 -269,432l5 22 4 22c46,276 604,323 815,339 211,-16 769,-63 815,-339l5 -22 4 -22c0,-125 -210,-314 -269,-432l-8 -22 -5 -17 0 -18 5 -13c17,-51 157,-176 22,-216 -86,-25 -134,-60 -150,-141l0 -26 4 -49c99,-246 277,-268 326,-515l0 -27 5 -48 0 -22c0,-188 -120,-387 -273,-489l-62 -31 -66 -31 97 27c281,80 483,173 603,453 142,497 -356,535 -291,732 236,-284 492,-312 366,-732 521,464 -112,703 -158,842l-9 17 -5 22c136,-71 350,-181 401,-334l13 -27 18 -66 18 57c90,392 -77,425 -313,582l-9 9 -13 17 -9 18 -4 13 0 9 0 13 0 13c113,-88 284,-98 352,-211l13 -26 9 -27 13 -26 0 57c0,407 -188,285 -361,458l-9 22c145,-14 210,-39 335,-114 -129,310 -251,408 -511,603 -266,166 -591,178 -894,194l-5 0z"/>
  <path class="fil3" d="M2556 3681c-58,-32 -104,-66 -167,-88 -131,-47 -270,-62 -397,-119 -112,-51 -78,-103 -44,-190 44,-111 169,-272 229,-392 52,-102 57,-153 18,-264 -3,-9 -23,-18 -26,-9 -8,18 -5,44 -22,53 -21,10 -58,-8 -89,0 -137,33 24,125 45,185 13,27 -252,384 -287,440 -33,55 -30,113 13,163 114,134 499,249 727,252 228,-3 613,-118 727,-252 43,-50 47,-108 13,-163 -34,-56 -299,-413 -286,-440 20,-60 181,-152 44,-185 -31,-8 -68,10 -88,0 -17,-9 -15,-35 -22,-53 -4,-9 -23,0 -26,9 -40,111 -34,162 17,264 60,120 185,281 229,392 34,87 69,139 -44,190 -127,57 -265,72 -396,119 -63,22 -110,56 -168,88z"/>
  <path class="fil4" d="M2404 4298c0,-97 -20,-257 5,-344 15,-53 48,-72 97,-71 87,2 151,28 167,124l0 44c32,-26 21,-25 62,-35 79,0 115,45 88,105 -6,14 -12,27 -18,40 -14,33 -6,98 31,101 86,9 42,-176 40,-229l48 -9c4,64 28,396 -79,450 -24,16 -35,19 -62,26 -198,22 -460,-154 -550,27 -25,62 -12,89 48,119 87,34 227,38 322,26 130,-37 158,-80 242,-181 19,-22 63,-43 92,-44 63,0 84,30 84,84 -38,-57 -54,-39 -84,0 -40,55 -120,151 -180,181 -94,46 -162,54 -265,48 -117,-6 -189,-14 -290,-75 -70,-41 -88,-103 -75,-176 27,-159 171,-198 313,-172 89,17 291,109 334,102 62,-11 93,-64 93,-128 -31,10 -40,24 -75,17 -54,-10 -82,-33 -93,-83 -13,-66 5,-133 5,-199l-31 14 0 238 -106 8c0,-98 0,-196 0,-295 0,-49 -19,-63 -57,-62 -32,2 -43,32 -44,58 -4,85 43,291 -62,291zm-158 30c-99,0 -154,-54 -154,-136l0 -163 114 0c0,61 0,123 0,185 0,59 84,92 84,31l0 -221 101 -4 5 181c-17,82 -56,108 -133,127l-17 0z"/>
  <polygon class="fil5" points="1675,1170 1525,888 1583,857 1794,985 1697,800 1750,769 1900,1051 1843,1081 1636,958 1732,1143 "/>
  <polygon class="fil5" points="1984,1024 1891,720 2116,650 2129,703 1966,751 1988,822 2142,773 2155,826 2006,870 2028,954 2199,901 2217,954 "/>
  <polygon class="fil5" points="2429,813 2424,760 2565,751 2574,879 2561,888 2548,896 2534,905 2517,914 2477,932 2437,936 2415,936 2393,936 2371,927 2349,923 2332,910 2318,896 2301,883 2292,866 2283,848 2274,826 2270,804 2266,782 2266,760 2270,733 2274,711 2283,694 2292,672 2305,659 2318,641 2340,628 2354,623 2371,615 2393,610 2415,610 2442,606 2468,610 2477,615 2490,619 2499,623 2508,628 2525,641 2539,654 2548,672 2556,694 2495,707 2481,689 2473,681 2464,672 2455,667 2442,663 2433,663 2420,663 2407,663 2398,667 2389,667 2380,672 2371,676 2362,681 2354,694 2345,703 2340,711 2336,720 2336,729 2332,751 2332,773 2336,800 2340,813 2340,826 2349,844 2362,857 2376,870 2393,879 2411,879 2433,883 2451,879 2473,870 2490,861 2503,848 2503,808 "/>
  <polygon class="fil5" points="2658,927 2702,610 2935,641 2931,694 2759,672 2750,742 2909,764 2900,817 2741,795 2728,883 2904,905 2900,958 "/>
  <path class="fil5" d="M2970 971l106 -299 128 44 40 13 26 18 9 8 9 9 4 9 4 13 0 14 0 13 0 13 -4 13 -9 18 -9 13 -8 9 -14 9 -13 8 -17 0 -18 5 -18 -5 14 18 8 18 9 26 9 35 18 71 -75 -22 -18 -84 -13 -35 -5 -18 -8 -13 -9 -9 -9 -4 -18 -9 -13 -4 -44 127 -62 -22zm124 -149l44 13 35 13 18 0 13 0 9 -4 9 -9 4 -13 4 -14 0 -13 -4 -9 -4 -4 -5 -4 -9 -5 -44 -13 -44 -18 -26 80z"/>
  <polygon class="fil5" points="3279,1090 3420,804 3477,835 3336,1121 "/>
  <polygon class="fil5" points="3578,1275 3662,1174 3689,954 3750,1002 3724,1148 3865,1095 3922,1143 3715,1214 3627,1315 "/>
  <path class="fil5" d="M3874 1319l17 -13 18 -13 17 -9 18 -4 26 -5 27 0 26 5 22 9 14 8 13 9 13 13 13 14 13 13 5 13 9 13 4 18 4 13 5 13 0 31 -9 31 -4 13 -9 13 -9 14 -13 13 -13 13 -14 13 -30 18 -14 9 -17 9 -13 4 -18 0 -13 4 -14 0 -17 -4 -13 -4 -14 -5 -13 -4 -13 -9 -13 -9 -22 -26 -5 -5 -8 -9 -9 -13 -5 -13 -4 -18 -5 -13 -4 -13 0 -31 4 -13 5 -13 4 -18 9 -13 22 -27 9 -8 18 -14zm39 49l-17 17 -14 18 -8 18 -5 17 -4 18 4 18 5 17 13 13 13 14 13 8 18 9 17 0 18 0 18 -4 22 -13 9 -5 13 -9 17 -17 14 -18 13 -17 4 -18 0 -18 -4 -17 -5 -14 -13 -17 -13 -13 -13 -9 -18 -9 -17 0 -18 0 -18 4 -22 14 -9 4 -13 9z"/>
  <polygon class="fil5" points="4156,1795 4204,1773 4261,1897 4147,1954 4133,1945 4120,1936 4089,1914 4076,1901 4063,1883 4041,1852 4032,1830 4028,1808 4023,1786 4023,1764 4028,1742 4032,1725 4041,1707 4054,1689 4067,1672 4085,1659 4103,1645 4120,1637 4142,1623 4164,1619 4191,1615 4213,1615 4230,1619 4252,1623 4274,1632 4292,1645 4305,1654 4319,1667 4327,1685 4341,1707 4349,1734 4358,1756 4358,1778 4358,1791 4358,1800 4354,1822 4345,1839 4332,1852 4323,1861 4314,1870 4274,1817 4283,1808 4292,1800 4296,1786 4296,1778 4296,1756 4296,1742 4288,1729 4279,1711 4266,1698 4252,1689 4235,1681 4217,1676 4195,1676 4186,1681 4178,1685 4151,1694 4129,1707 4111,1720 4098,1734 4089,1751 4081,1769 4081,1786 4085,1804 4089,1826 4103,1839 4116,1857 4133,1870 4147,1879 4186,1861 "/>
  <polygon class="fil5" points="4156,2126 4288,2090 4437,1932 4455,2002 4354,2108 4495,2143 4512,2218 4305,2152 4173,2187 "/>
  <path class="fil5" d="M4230 2606l-4 -66 70 -36 -13 -123 -75 -22 -4 -66 330 93 5 70 -309 150zm115 -124l114 -57 -118 -31 4 88z"/>
  <polygon class="fil5" points="4222,2663 4543,2703 4534,2764 4398,2747 4517,2892 4508,2976 4398,2844 4186,2945 4200,2861 4358,2795 4310,2738 4213,2725 "/>
  <path class="fil5" d="M4081 3267l26 -62 75 -4 44 -119 -62 -49 22 -66 265 220 -22 66 -348 14zm158 -66l128 -5 -97 -79 -31 84z"/>
  <path class="fil5" d="M4054 3315l278 168 -71 114 -26 35 -9 14 -9 8c-71,48 -157,-14 -136,-97l4 -17c-67,26 -102,22 -176,22l39 -66c45,-3 113,1 155,-13l8 -5 9 -9 9 -17 9 -9 -115 -71 31 -57zm128 150l-26 44 -18 31 -9 17 0 14 4 8c11,22 47,40 62,18l31 -44 26 -44 -70 -44z"/>
  <polygon class="fil5" points="3825,3650 4023,3831 4089,3760 4129,3795 3957,3985 3918,3945 3984,3879 3785,3698 "/>
  <path class="fil5" d="M3473 3976l53 -40 66 40 101 -84 -26 -70 52 -44 106 326 -53 44 -299 -172zm171 26l106 66 -39 -119 -67 53z"/>
  <polygon class="fil5" points="1376,4183 1327,4139 1442,4007 1473,3963 1477,3945 1481,3936 1477,3927 1477,3919 1468,3910 1455,3892 1433,3879 1424,3875 1415,3875 1398,3875 1384,3883 1367,3901 1345,3923 1230,4060 1182,4020 1292,3892 1323,3853 1345,3831 1367,3817 1376,3817 1389,3813 1411,3813 1433,3817 1446,3822 1459,3831 1486,3848 1503,3861 1517,3875 1534,3901 1543,3923 1543,3936 1543,3945 1543,3967 1539,3976 1534,3985 1525,3998 1517,4016 1486,4051 "/>
  <polygon class="fil5" points="1332,3712 1080,3910 1041,3861 1125,3632 957,3764 922,3716 1169,3513 1213,3566 1129,3795 1292,3663 "/>
  <polygon class="fil5" points="1129,3443 856,3610 821,3553 1098,3390 "/>
  <polygon class="fil5" points="1032,3253 776,3474 750,3412 939,3253 688,3267 662,3205 1006,3192 "/>
  <polygon class="fil5" points="948,3033 636,3099 583,2870 640,2861 675,3029 741,3011 710,2857 763,2848 794,3002 882,2985 843,2808 895,2800 "/>
  <path class="fil5" d="M891 2729l-322 5 0 -133 0 -44 5 -30 4 -14 9 -9 9 -8 9 -9 13 -5 9 -4 31 -4 13 0 17 4 9 4 5 0 13 9 13 13 9 14 4 17 5 18 13 -18 13 -17 22 -14 31 -22 62 -39 0 75 -71 48 -26 22 -18 13 -9 9 -4 9 -5 13 0 22 0 13 137 -4 0 66zm-185 -62l0 -48 -4 -35 -5 -22 -4 -9 -9 -9 -9 -4 -13 0 -18 0 -4 4 -4 5 -9 8 -5 14 0 48 0 48 84 0z"/>
  <polygon class="fil5" points="790,2386 794,2324 812,2324 825,2319 834,2315 843,2311 851,2302 860,2293 865,2280 869,2267 869,2253 869,2240 869,2227 865,2218 860,2209 851,2205 847,2201 838,2196 825,2196 816,2201 812,2205 807,2209 799,2223 776,2267 763,2289 754,2306 741,2319 732,2333 715,2341 697,2346 680,2350 671,2350 662,2346 649,2346 640,2341 618,2324 613,2315 605,2306 600,2293 596,2280 591,2267 591,2249 596,2218 605,2192 609,2178 613,2165 627,2148 640,2134 649,2130 658,2126 675,2117 697,2117 719,2117 710,2178 697,2183 688,2183 680,2187 671,2192 662,2196 658,2205 653,2227 649,2240 649,2253 653,2267 653,2275 662,2284 671,2289 684,2289 693,2284 702,2275 706,2262 724,2227 746,2192 750,2174 759,2165 768,2156 776,2148 790,2143 799,2134 812,2134 825,2130 838,2130 851,2134 865,2139 878,2143 900,2156 909,2170 913,2178 922,2192 926,2205 926,2223 926,2240 926,2258 922,2275 917,2306 904,2328 891,2346 878,2364 860,2372 838,2381 816,2386 "/>
  <polygon class="fil5" points="962,2090 658,1993 680,1932 984,2029 "/>
  <polygon class="fil5" points="1036,1897 794,1786 754,1870 706,1848 812,1619 860,1645 821,1729 1063,1839 "/>
  <path class="fil5" d="M1296 1491l-44 53 -75 -22 -75 106 45 61 -40 58 -190 -287 45 -57 334 88zm-171 18l-124 -35 71 105 53 -70z"/>
  <polygon class="fil5" points="1248,1390 1292,1341 1301,1350 1314,1355 1327,1359 1340,1359 1349,1359 1362,1355 1371,1346 1384,1337 1389,1333 1393,1328 1402,1319 1406,1306 1406,1297 1406,1289 1406,1280 1402,1271 1398,1262 1389,1258 1380,1253 1371,1253 1354,1262 1310,1284 1288,1297 1265,1306 1248,1311 1235,1311 1217,1311 1199,1306 1182,1297 1169,1284 1160,1275 1155,1262 1147,1240 1147,1227 1147,1214 1151,1205 1155,1192 1160,1178 1169,1165 1195,1139 1204,1130 1213,1121 1235,1108 1257,1099 1279,1099 1288,1099 1296,1099 1318,1108 1327,1112 1336,1117 1354,1130 1305,1174 1296,1170 1288,1165 1270,1161 1261,1161 1248,1165 1239,1174 1230,1183 1213,1200 1208,1209 1204,1218 1208,1231 1213,1240 1217,1245 1221,1245 1226,1249 1230,1249 1243,1245 1257,1240 1292,1222 1327,1205 1358,1192 1380,1187 1406,1192 1429,1200 1437,1209 1446,1218 1455,1231 1464,1240 1468,1253 1473,1267 1473,1280 1473,1297 1468,1311 1464,1324 1446,1350 1437,1363 1420,1377 1411,1390 1398,1394 1376,1408 1367,1416 1354,1416 1336,1421 1314,1421 1292,1412 1270,1403 1261,1394 "/>
  <polyline class="fil6" points="3178,3333 3187,3355 3187,3377 3187,3394 3182,3403 3178,3416 3169,3430 3156,3447 3147,3456 3134,3460 3112,3474 3085,3483 3033,3505 2975,3518 2922,3531 2870,3544 2812,3562 2720,3597 2676,3615 2627,3632 2574,3659 2548,3668 2526,3681 "/>
  <polygon class="fil5" points="2530,2597 2226,2597 2204,2438 2253,2394 2358,2491 2482,2416 2535,2421 2592,2416 2720,2491 2821,2394 2870,2438 2852,2597 "/>
  <path class="fil5" d="M2526 2386l-66 4 -102 62 -26 -62 115 -727 -84 -79 22 -71 48 9 27 40 13 -40 57 -4 71 4 17 40 27 -40 44 -9 22 71 -84 79 119 727 -26 62 -102 -62 -92 -4zm10 -738l17 36 17 35 -17 36 -1 2 0 155 1 3 17 35 -17 36 -1 2 0 198 1 2 17 35 -17 36 -17 35 -16 -35 -17 -36 17 -35 6 -13 0 -176 -6 -13 -17 -36 17 -35 6 -14 0 -133 -6 -13 -17 -36 17 -35 16 -36z"/>
  <path class="fil5" d="M2544 3267l0 334 -31 0 0 -334c-64,-48 -53,-150 17,-150 69,0 78,106 14,150z"/>
  <path class="fil7" d="M2662 1491l-118 9 -31 -185 8 -35 45 128 79 13 17 70zm-158 -317l-88 313 97 17 -36 -110 27 -220zm26 -207l-17 167 70 251 62 18 -93 -264 -22 -172z"/>
  <path class="fil5" d="M2530 2632l-238 13 0 331 -13 0c-42,0 -67,37 -39,66 24,25 74,1 94,-26l408 0c22,22 73,54 97,17 12,-19 -3,-57 -40,-57l-18 0 0 -331 -251 -13zm-181 331l-4 -18 0 -264 185 0 199 0 0 264 0 18 -380 0z"/>
  <polygon class="fil8" points="2526,1703 2552,1703 2552,2253 2526,2253 "/>
  <polygon class="fil9" points="2536,1648 2553,1684 2570,1719 2553,1755 2536,1790 2520,1755 2503,1719 2520,1684 "/>
  <polygon class="fil9" points="2536,1879 2553,1915 2570,1950 2553,1986 2536,2021 2520,1986 2503,1950 2520,1915 "/>
  <polygon class="fil9" points="2536,2152 2553,2188 2570,2223 2553,2259 2536,2294 2520,2259 2503,2223 2520,2188 "/>
  <path class="fil5" d="M2518 3641c-184,-138 -327,-147 -538,-207 -79,-20 -70,-154 18,-154 279,46 392,105 520,361zm-251 -467c-24,-11 -154,-55 -163,-62 -14,-18 -22,-39 -5,-57 58,-57 168,23 168,119zm39 154c-68,-17 -188,-50 -255,-66 -44,-10 -51,-73 -9,-101 132,-33 218,50 264,167z"/>
  <path class="fil5" d="M2534 3641c184,-138 327,-147 537,-207 80,-20 71,-154 -17,-154 -279,46 -392,105 -520,361zm251 -467c24,-11 154,-55 163,-62 14,-18 22,-39 4,-57 -57,-57 -167,23 -167,119zm-40 154c69,-17 189,-50 256,-66 44,-10 51,-73 9,-101 -132,-33 -218,50 -265,167z"/>
  <path class="fil6" d="M2047 4258c0,35 -30,66 -66,66 -39,0 -70,-31 -70,-66 0,-40 31,-71 70,-71 36,0 66,31 66,71z"/>
  <path class="fil6" d="M3202 4258c0,35 -31,66 -66,66 -40,0 -71,-31 -71,-66 0,-40 31,-71 71,-71 35,0 66,31 66,71z"/>
  <path class="fil5" d="M2043 4258c0,31 -31,62 -62,62 -35,0 -66,-31 -66,-62 0,-35 31,-66 66,-66 31,0 62,31 62,66z"/>
  <path class="fil5" d="M3197 4258c0,31 -31,62 -61,62 -36,0 -66,-31 -66,-62 0,-35 30,-66 66,-66 30,0 61,31 61,66z"/>
 </g>
</svg>
